<svg width="16" height="16" viewBox="0 0 16 16" fill="none" xmlns="http://www.w3.org/2000/svg">
<g clip-path="url(#clip0_3_2)">
<path d="M12.3717 3.75847C10.6567 3.76672 9.35325 4.90097 8.86525 6.70847C8.0465 5.44847 7.40775 4.00722 7.0415 2.79047L5.2365 2.79897L5.2615 7.58347C5.26257 7.80872 5.21926 8.03197 5.13404 8.24048C5.04883 8.449 4.92338 8.63868 4.76486 8.79871C4.60634 8.95874 4.41785 9.08598 4.21015 9.17317C4.00246 9.26035 3.77962 9.30577 3.55437 9.30684C3.09946 9.309 2.66233 9.13035 2.33913 8.8102C2.1791 8.65168 2.05186 8.46319 1.96467 8.2555C1.87749 8.0478 1.83207 7.82497 1.831 7.59972L1.806 2.81522L0 2.82397L0.025 7.60872C0.032 9.59422 1.6185 11.1675 3.56 11.1575C5.5015 11.1475 7.07375 9.56097 7.065 7.57497L7.06125 6.76247C7.42525 7.48247 7.88025 8.24747 8.38025 8.92247L7.2765 14.2085L9.1265 14.2L9.9215 10.3595C10.6455 10.8077 11.459 11.0745 12.4065 11.07C14.3925 11.0612 16.01 9.42922 16 7.35247C15.991 5.36597 14.358 3.74922 12.372 3.75822L12.3717 3.75847ZM12.3975 9.21997C11.6755 9.22322 10.952 8.91097 10.363 8.41672L10.54 7.69172V7.64622C10.672 6.87772 11.0715 5.56722 12.4255 5.56122C12.904 5.56034 13.3633 5.74884 13.7032 6.08554C14.0432 6.42224 14.2361 6.87978 14.2397 7.35822C14.199 8.39647 13.3455 9.21322 12.3973 9.21747L12.3975 9.21997Z" fill="#6FDA44"/>
</g>
<defs>
<clipPath id="clip0_3_2">
<rect width="16" height="16" fill="white"/>
</clipPath>
</defs>
</svg>
